<svg xmlns="http://www.w3.org/2000/svg" viewBox="0 0 64 64" width="64" height="64">
  <defs>
    <radialGradient id="bg" cx="50%" cy="50%" r="60%">
      <stop offset="0%" stop-color="#fdf6f0"/>
      <stop offset="100%" stop-color="#f5e6d8"/>
    </radialGradient>
    <radialGradient id="g-strong" cx="50%" cy="50%" r="80%">
      <stop offset="0%" stop-color="#dc2626"/>
      <stop offset="100%" stop-color="#fca5a5"/>
    </radialGradient>
    <radialGradient id="g-pleasure" cx="50%" cy="50%" r="80%">
      <stop offset="0%" stop-color="#16a34a"/>
      <stop offset="100%" stop-color="#86efac"/>
    </radialGradient>
    <radialGradient id="g-controller" cx="50%" cy="50%" r="80%">
      <stop offset="0%" stop-color="#2563eb"/>
      <stop offset="100%" stop-color="#93c5fd"/>
    </radialGradient>
    <radialGradient id="g-intermediate" cx="50%" cy="50%" r="80%">
      <stop offset="0%" stop-color="#ca8a04"/>
      <stop offset="100%" stop-color="#fde68a"/>
    </radialGradient>
    <radialGradient id="g-regulator" cx="50%" cy="50%" r="80%">
      <stop offset="0%" stop-color="#0891b2"/>
      <stop offset="100%" stop-color="#67e8f9"/>
    </radialGradient>
  </defs>

  <!-- Background circle -->
  <circle cx="32" cy="32" r="31" fill="url(#bg)"/>

  <!-- 5 segments (бытийности) — радиальные pie slices -->
  <!-- Сегмент 1: верх-право (УДОВНАЯ, зелёный, 30°) -->
  <path d="M 32 32 L 32 8 A 24 24 0 0 1 55.1 21.6 Z" fill="url(#g-pleasure)" opacity="0.9"/>
  <!-- Сегмент 2: право (СИЛЬНАЯ, красный, 90°) -->
  <path d="M 32 32 L 55.1 21.6 A 24 24 0 0 1 53.4 46.6 Z" fill="url(#g-strong)" opacity="0.9"/>
  <!-- Сегмент 3: низ-право (КОНТРОЛЁР, синий, 150°) -->
  <path d="M 32 32 L 53.4 46.6 A 24 24 0 0 1 32 56 Z" fill="url(#g-controller)" opacity="0.9"/>
  <!-- Сегмент 4: низ-лево (ПРОМЕЖУТОЧНАЯ, золотой, 210°) -->
  <path d="M 32 32 L 32 56 A 24 24 0 0 1 10.6 46.6 Z" fill="url(#g-intermediate)" opacity="0.9"/>
  <!-- Сегмент 5: лево-верх (РЕГУЛЯТОР, бирюзовый, 330°) -->
  <path d="M 32 32 L 10.6 46.6 A 24 24 0 0 1 19.1 11.6 Z" fill="url(#g-regulator)" opacity="0.9"/>
  <path d="M 32 32 L 19.1 11.6 A 24 24 0 0 1 32 8 Z" fill="url(#g-regulator)" opacity="0.9"/>

  <!-- Внутренний круг-разделитель (золотая рамка) -->
  <circle cx="32" cy="32" r="9" fill="none" stroke="#ca8a04" stroke-width="1" opacity="0.6"/>

  <!-- Центральное «Я» -->
  <circle cx="32" cy="32" r="8" fill="#1a1a1a"/>
  <text x="32" y="32" text-anchor="middle" dominant-baseline="central" font-family="serif" font-size="9" font-weight="700" fill="white">Я</text>

  <!-- Внешний декоративный круг -->
  <circle cx="32" cy="32" r="29" fill="none" stroke="#ca8a04" stroke-width="0.5" opacity="0.4" stroke-dasharray="1 2"/>
</svg>
